<svg width="120" height="97" viewBox="0 0 120 97" fill="none" xmlns="http://www.w3.org/2000/svg">
<path d="M39.3975 39.5813H80.6028C81.5419 39.5813 82.3031 38.8225 82.3031 37.8865C82.3031 29.1937 75.006 22.2319 66.7644 19.6624C69.3561 17.6496 71.0281 14.5121 71.0281 10.9912C71.0281 4.93074 66.0809 0 60.0002 0C53.9196 0 48.9724 4.93074 48.9724 10.9912C48.9724 14.5121 50.6442 17.6493 53.2361 19.6624C44.9947 22.2322 37.6973 29.1937 37.6973 37.8865C37.6973 38.8225 38.4584 39.5813 39.3975 39.5813ZM52.373 10.9912C52.373 6.79956 55.7944 3.38949 60 3.38949C64.2056 3.38949 67.627 6.79956 67.627 10.9912C67.627 15.1827 64.2056 18.5928 60 18.5928C55.7944 18.5928 52.373 15.1827 52.373 10.9912ZM47.214 26.5816C50.8788 23.7017 55.6586 21.9825 60.0002 21.9825C64.3419 21.9825 69.1217 23.702 72.7863 26.5816C76.1951 29.26 78.2803 32.6229 78.7833 36.1918H41.2169C41.72 32.6229 43.8052 29.26 47.214 26.5816ZM118.3 56.6704H82.3031V47.211C82.3031 46.275 81.5419 45.5163 80.6028 45.5163H39.3975C38.4584 45.5163 37.6971 46.275 37.6971 47.211V56.6704H1.70064C0.761535 56.6704 0.000243012 57.4291 0.000243012 58.3651V95.3053C0.000243012 96.2412 0.761535 97 1.70064 97H118.299C119.238 97 120 96.2412 120 95.3053V58.3651C120 57.4291 119.238 56.6704 118.299 56.6704H118.3ZM3.40128 60.0599H37.6971V93.6105H3.40104L3.40128 60.0599ZM78.9024 93.6105H41.0979V48.9058H78.9024V93.6105ZM116.599 93.6105H82.3031V60.0599H116.599V93.6105ZM87.3851 49.7849H118.3C119.239 49.7849 120 49.0261 120 48.0901C120 41.6307 114.801 36.4111 108.76 34.2583C110.469 32.6742 111.541 30.4161 111.541 27.912C111.541 23.1316 107.639 19.2424 102.842 19.2424C98.0457 19.2424 94.144 23.1313 94.144 27.912C94.144 30.4161 95.216 32.6742 96.9251 34.2583C90.8836 36.4111 85.6848 41.6307 85.6848 48.0901C85.6848 49.0261 86.446 49.7849 87.3851 49.7849ZM97.5448 27.912C97.5448 25.0006 99.9212 22.6319 102.842 22.6319C105.763 22.6319 108.14 25.0004 108.14 27.912C108.14 30.8236 105.764 33.1918 102.842 33.1918C99.921 33.1918 97.5448 30.8233 97.5448 27.912ZM102.842 36.5813C108.637 36.5813 115.29 40.7528 116.429 46.3954H89.2558C90.3946 40.7528 97.0471 36.5813 102.842 36.5813ZM1.70064 49.7851H32.6151C33.5542 49.7851 34.3155 49.0263 34.3155 48.0904C34.3155 41.6309 29.1166 36.4116 23.0754 34.2586C24.7843 32.6745 25.8563 30.4163 25.8563 27.9122C25.8563 23.1318 21.9543 19.2426 17.158 19.2426C12.3617 19.2426 8.45948 23.1316 8.45948 27.9122C8.45948 30.4163 9.53146 32.6745 11.2404 34.2586C5.19884 36.4114 0 41.631 0 48.0901C0 49.0261 0.761292 49.7849 1.7004 49.7849L1.70064 49.7851ZM11.8603 27.9122C11.8603 25.0009 14.2367 22.6321 17.158 22.6321C20.0793 22.6321 22.4555 25.0007 22.4555 27.9122C22.4555 30.8238 20.0815 33.1894 17.1628 33.1921C17.1614 33.1921 17.1597 33.1921 17.158 33.1921C17.1563 33.1921 17.1548 33.1921 17.1531 33.1921C14.2343 33.1894 11.8603 30.8221 11.8603 27.9122ZM17.1529 36.5816C17.1546 36.5816 17.1563 36.5816 17.158 36.5816C17.1597 36.5816 17.1614 36.5816 17.1631 36.5816C22.9571 36.584 29.6061 40.7548 30.7447 46.3956H3.57108C4.70962 40.7548 11.3587 36.584 17.1529 36.5816ZM54.3326 61.813C54.3326 60.877 55.0939 60.1182 56.033 60.1182H60C60.9391 60.1182 61.7004 60.877 61.7004 61.813V80.7031C61.7004 81.6391 60.9391 82.3978 60 82.3978C59.0609 82.3978 58.2996 81.6391 58.2996 80.7031V63.5077H56.033C55.0939 63.5077 54.3326 62.7489 54.3326 61.813Z" fill="url(#paint0_linear_203_167)"/>
<defs>
<linearGradient id="paint0_linear_203_167" x1="60" y1="0" x2="60" y2="97" gradientUnits="userSpaceOnUse">
<stop stop-color="#EA4335"/>
<stop offset="0.41" stop-color="#4285F4"/>
<stop offset="1" stop-color="#FBBC05"/>
</linearGradient>
</defs>
</svg>
