<svg width="35" height="35" viewBox="0 0 35 35" fill="none" xmlns="http://www.w3.org/2000/svg">
<path d="M35 34.9978V21.4589C35 14.2052 31.2993 10.8298 26.3628 10.8298C22.3795 10.8298 20.5956 13.122 19.6024 14.7302V11.3835H12.0997C12.1988 13.6007 12.0997 34.9978 12.0997 34.9978H19.6024V21.8096C19.6024 21.1059 19.6509 20.3999 19.8491 19.8969C20.391 18.4872 21.6246 17.0268 23.6974 17.0268C26.4134 17.0268 27.4994 19.191 27.4994 22.3656V35L35 34.9978ZM4.19418 8.16041C6.80895 8.16041 8.43897 6.34478 8.43897 4.0791C8.39047 1.76269 6.80895 0 4.24268 0C1.67641 0 0 1.76269 0 4.0791C0 6.34699 1.62791 8.16041 4.14779 8.16041H4.19418ZM7.94554 34.9978V11.3835H0.444933V34.9978H7.94554Z" fill="white"/>
</svg>
