<svg width="94" height="94" viewBox="0 0 94 94" fill="none" xmlns="http://www.w3.org/2000/svg">
<path d="M1.5625 93.75H20.3125C20.7269 93.75 21.1243 93.5854 21.4174 93.2924C21.7104 92.9993 21.875 92.6019 21.875 92.1875V79.6875C21.873 77.6851 21.3214 75.7216 20.2802 74.0111C19.239 72.3007 17.7482 70.9089 15.9703 69.9875C17.1957 68.9555 18.0741 67.5717 18.4866 66.0236C18.8991 64.4756 18.8257 62.8382 18.2764 61.3333C17.7271 59.8283 16.7284 58.5287 15.4156 57.6104C14.1029 56.6921 12.5395 56.1996 10.9375 56.1996C9.33545 56.1996 7.77213 56.6921 6.45939 57.6104C5.14664 58.5287 4.14794 59.8283 3.59862 61.3333C3.0493 62.8382 2.97591 64.4756 3.38841 66.0236C3.80091 67.5717 4.67935 68.9555 5.90469 69.9875C4.12683 70.9089 2.63605 72.3007 1.59484 74.0111C0.553639 75.7216 0.00197841 77.6851 0 79.6875V92.1875C0 92.6019 0.16462 92.9993 0.457646 93.2924C0.750671 93.5854 1.1481 93.75 1.5625 93.75ZM6.25 64.0625C6.25 63.1354 6.52492 62.2291 7.03999 61.4583C7.55506 60.6874 8.28714 60.0866 9.14367 59.7318C10.0002 59.377 10.9427 59.2842 11.852 59.4651C12.7613 59.6459 13.5965 60.0924 14.2521 60.7479C14.9076 61.4035 15.3541 62.2387 15.5349 63.148C15.7158 64.0573 15.623 64.9998 15.2682 65.8563C14.9134 66.7129 14.3126 67.4449 13.5417 67.96C12.7709 68.4751 11.8646 68.75 10.9375 68.75C9.6943 68.75 8.50201 68.2561 7.62294 67.3771C6.74386 66.498 6.25 65.3057 6.25 64.0625ZM3.125 79.6875C3.125 77.6155 3.9481 75.6284 5.41323 74.1632C6.87836 72.6981 8.8655 71.875 10.9375 71.875C13.0095 71.875 14.9966 72.6981 16.4618 74.1632C17.9269 75.6284 18.75 77.6155 18.75 79.6875V90.625H3.125V79.6875ZM25 82.8125V92.1875C25 92.6019 25.1646 92.9993 25.4576 93.2924C25.7507 93.5854 26.1481 93.75 26.5625 93.75H39.0625C39.4769 93.75 39.8743 93.5854 40.1674 93.2924C40.4604 92.9993 40.625 92.6019 40.625 92.1875V82.8125C40.6244 81.5331 40.3097 80.2735 39.7084 79.1442C39.1071 78.0149 38.2377 77.0506 37.1766 76.3359C38.0662 75.4682 38.6769 74.3549 38.9308 73.1383C39.1846 71.9218 39.07 70.6572 38.6015 69.5061C38.1331 68.355 37.3321 67.3697 36.301 66.676C35.2698 65.9823 34.0553 65.6119 32.8125 65.6119C31.5697 65.6119 30.3552 65.9823 29.324 66.676C28.2929 67.3697 27.4919 68.355 27.0235 69.5061C26.5551 70.6572 26.4404 71.9218 26.6942 73.1383C26.9481 74.3549 27.5588 75.4682 28.4484 76.3359C27.3873 77.0506 26.5179 78.0149 25.9166 79.1442C25.3153 80.2735 25.0006 81.5331 25 82.8125ZM29.6875 71.875C29.6875 71.2569 29.8708 70.6527 30.2142 70.1388C30.5575 69.6249 31.0456 69.2244 31.6166 68.9879C32.1876 68.7514 32.816 68.6895 33.4222 68.81C34.0283 68.9306 34.5852 69.2282 35.0222 69.6653C35.4592 70.1023 35.7569 70.6591 35.8775 71.2653C35.998 71.8715 35.9361 72.4999 35.6996 73.0709C35.4631 73.6419 35.0626 74.13 34.5487 74.4733C34.0348 74.8167 33.4306 75 32.8125 75C31.9837 75 31.1888 74.6708 30.6028 74.0847C30.0167 73.4987 29.6875 72.7038 29.6875 71.875ZM28.125 82.8125C28.125 81.5693 28.6189 80.377 29.4979 79.4979C30.377 78.6189 31.5693 78.125 32.8125 78.125C34.0557 78.125 35.248 78.6189 36.1271 79.4979C37.0061 80.377 37.5 81.5693 37.5 82.8125V90.625H28.125V82.8125ZM43.75 79.6875V92.1875C43.75 92.6019 43.9146 92.9993 44.2076 93.2924C44.5007 93.5854 44.8981 93.75 45.3125 93.75H64.0625C64.4769 93.75 64.8743 93.5854 65.1674 93.2924C65.4604 92.9993 65.625 92.6019 65.625 92.1875V79.6875C65.623 77.6851 65.0714 75.7216 64.0302 74.0111C62.989 72.3007 61.4982 70.9089 59.7203 69.9875C60.9457 68.9555 61.8241 67.5717 62.2366 66.0236C62.6491 64.4756 62.5757 62.8382 62.0264 61.3333C61.4771 59.8283 60.4784 58.5287 59.1656 57.6104C57.8529 56.6921 56.2895 56.1996 54.6875 56.1996C53.0855 56.1996 51.5221 56.6921 50.2094 57.6104C48.8966 58.5287 47.8979 59.8283 47.3486 61.3333C46.7993 62.8382 46.7259 64.4756 47.1384 66.0236C47.5509 67.5717 48.4293 68.9555 49.6547 69.9875C47.8768 70.9089 46.386 72.3007 45.3448 74.0111C44.3036 75.7216 43.752 77.6851 43.75 79.6875ZM50 64.0625C50 63.1354 50.2749 62.2291 50.79 61.4583C51.3051 60.6874 52.0371 60.0866 52.8937 59.7318C53.7502 59.377 54.6927 59.2842 55.602 59.4651C56.5113 59.6459 57.3465 60.0924 58.0021 60.7479C58.6576 61.4035 59.1041 62.2387 59.2849 63.148C59.4658 64.0573 59.373 64.9998 59.0182 65.8563C58.6634 66.7129 58.0626 67.4449 57.2917 67.96C56.5209 68.4751 55.6146 68.75 54.6875 68.75C53.4443 68.75 52.252 68.2561 51.3729 67.3771C50.4939 66.498 50 65.3057 50 64.0625ZM54.6875 71.875C56.7587 71.8775 58.7444 72.7014 60.209 74.166C61.6736 75.6306 62.4975 77.6163 62.5 79.6875V90.625H46.875V79.6875C46.8775 77.6163 47.7014 75.6306 49.166 74.166C50.6306 72.7014 52.6163 71.8775 54.6875 71.875ZM68.75 82.8125V92.1875C68.75 92.6019 68.9146 92.9993 69.2076 93.2924C69.5007 93.5854 69.8981 93.75 70.3125 93.75H82.8125C83.2269 93.75 83.6243 93.5854 83.9174 93.2924C84.2104 92.9993 84.375 92.6019 84.375 92.1875V82.8125C84.3744 81.5331 84.0597 80.2735 83.4584 79.1442C82.8571 78.0149 81.9877 77.0506 80.9266 76.3359C81.8162 75.4682 82.4269 74.3549 82.6808 73.1383C82.9346 71.9218 82.82 70.6572 82.3515 69.5061C81.8831 68.355 81.0821 67.3697 80.051 66.676C79.0198 65.9823 77.8053 65.6119 76.5625 65.6119C75.3197 65.6119 74.1052 65.9823 73.074 66.676C72.0429 67.3697 71.2419 68.355 70.7735 69.5061C70.305 70.6572 70.1904 71.9218 70.4442 73.1383C70.6981 74.3549 71.3088 75.4682 72.1984 76.3359C71.1373 77.0506 70.2679 78.0149 69.6666 79.1442C69.0653 80.2735 68.7506 81.5331 68.75 82.8125ZM73.4375 71.875C73.4375 71.2569 73.6208 70.6527 73.9642 70.1388C74.3075 69.6249 74.7956 69.2244 75.3666 68.9879C75.9376 68.7514 76.566 68.6895 77.1722 68.81C77.7784 68.9306 78.3352 69.2282 78.7722 69.6653C79.2093 70.1023 79.5069 70.6591 79.6275 71.2653C79.748 71.8715 79.6861 72.4999 79.4496 73.0709C79.2131 73.6419 78.8126 74.13 78.2987 74.4733C77.7848 74.8167 77.1806 75 76.5625 75C75.7337 75 74.9388 74.6708 74.3528 74.0847C73.7667 73.4987 73.4375 72.7038 73.4375 71.875ZM71.875 82.8125C71.875 81.5693 72.3689 80.377 73.2479 79.4979C74.127 78.6189 75.3193 78.125 76.5625 78.125C77.8057 78.125 78.998 78.6189 79.8771 79.4979C80.7561 80.377 81.25 81.5693 81.25 82.8125V90.625H71.875V82.8125ZM88.1469 23.5156C89.3773 22.179 90.193 20.5137 90.4945 18.7222C90.7961 16.9307 90.5707 15.0901 89.8456 13.4244C89.1206 11.7586 87.9271 10.3394 86.4104 9.33928C84.8937 8.33919 83.1191 7.80133 81.3024 7.79109C79.4857 7.78085 77.7052 8.29869 76.1773 9.28162C74.6495 10.2645 73.4401 11.6702 72.6963 13.3277C71.9525 14.9852 71.7064 16.8231 71.9877 18.6179C72.2691 20.4127 73.0659 22.0871 74.2812 23.4375H65.625V1.5625C65.625 1.1481 65.4604 0.750671 65.1674 0.457646C64.8743 0.16462 64.4769 0 64.0625 0H1.5625C1.1481 0 0.750671 0.16462 0.457646 0.457646C0.16462 0.750671 0 1.1481 0 1.5625V42.1875C0 42.6019 0.16462 42.9993 0.457646 43.2924C0.750671 43.5854 1.1481 43.75 1.5625 43.75H24.2188V46.125L16.9922 51.9062C16.7399 52.1087 16.5566 52.3844 16.4677 52.6955C16.3787 53.0065 16.3885 53.3374 16.4957 53.6426C16.6029 53.9479 16.8021 54.2123 17.066 54.3994C17.3298 54.5866 17.6453 54.6872 17.9688 54.6875H47.6562C47.9801 54.6877 48.296 54.5872 48.5603 54.3999C48.8245 54.2127 49.0241 53.948 49.1313 53.6424C49.2386 53.3368 49.2482 53.0054 49.1589 52.6941C49.0696 52.3828 48.8857 52.107 48.6328 51.9047L41.4062 46.125V43.75H64.0625C64.4769 43.75 64.8743 43.5854 65.1674 43.2924C65.4604 42.9993 65.625 42.6019 65.625 42.1875V34.7672L73.1766 36.2516L68.525 52.7C68.4593 52.9323 68.4484 53.1767 68.493 53.414C68.5377 53.6513 68.6367 53.8749 68.7824 54.0675C68.928 54.2601 69.1163 54.4163 69.3324 54.5238C69.5486 54.6314 69.7867 54.6874 70.0281 54.6875H92.1875C92.6019 54.6875 92.9993 54.5229 93.2924 54.2299C93.5854 53.9368 93.75 53.5394 93.75 53.125V30.5594C93.8275 28.9058 93.3022 27.2804 92.2717 25.9849C91.2411 24.6895 89.7755 23.812 88.1469 23.5156ZM75 17.1875C75 15.9514 75.3666 14.743 76.0533 13.7152C76.7401 12.6874 77.7162 11.8863 78.8582 11.4133C80.0003 10.9402 81.2569 10.8164 82.4693 11.0576C83.6817 11.2987 84.7953 11.894 85.6694 12.7681C86.5435 13.6422 87.1387 14.7558 87.3799 15.9682C87.6211 17.1806 87.4973 18.4372 87.0242 19.5793C86.5512 20.7213 85.7501 21.6974 84.7223 22.3842C83.6945 23.0709 82.4861 23.4375 81.25 23.4375C79.5924 23.4375 78.0027 22.779 76.8306 21.6069C75.6585 20.4348 75 18.8451 75 17.1875ZM38.8672 48.0953L43.2016 51.5625H22.4203L26.7547 48.0953C26.9382 47.9492 27.0864 47.7636 27.1884 47.5523C27.2904 47.3411 27.3435 47.1096 27.3438 46.875V43.75H38.2812V46.875C38.2812 47.1093 38.3338 47.3407 38.4352 47.5519C38.5366 47.7631 38.6843 47.9489 38.8672 48.0953ZM62.5 40.625H3.125V3.125H62.5V23.4375H57.8125C57.5261 23.4375 57.2452 23.5162 57.0005 23.665C56.7558 23.8138 56.5567 24.027 56.425 24.2813L53.3 30.3062C53.1882 30.5222 53.1283 30.7613 53.1251 31.0045C53.122 31.2477 53.1757 31.4883 53.2819 31.7071C53.3881 31.9259 53.5439 32.1169 53.7369 32.2648C53.93 32.4128 54.1549 32.5136 54.3937 32.5594L62.5 34.1531V40.625ZM90.625 51.5625H72.0953L76.6453 35.4688C76.7042 35.2609 76.7194 35.043 76.6898 34.8289C76.6602 34.6149 76.5866 34.4093 76.4735 34.2252C76.3605 34.041 76.2104 33.8823 76.0329 33.7591C75.8554 33.6359 75.6542 33.5509 75.4422 33.5094L57.0312 29.8953L58.7609 26.5625H87.4703C88.4127 26.6876 89.2693 27.1749 89.8583 27.9211C90.4472 28.6674 90.7223 29.6137 90.625 30.5594V51.5625Z" fill="#595BD4"/>
</svg>
