<svg width="100" height="100" viewBox="0 0 100 100" fill="none" xmlns="http://www.w3.org/2000/svg">
<path d="M86.4583 20.8333V57.2917H80.2083V20.8333C80.2083 17.9625 77.8708 15.625 75 15.625H25C22.1291 15.625 19.7916 17.9625 19.7916 20.8333V57.2917H13.5416V20.8333C13.5416 14.5125 18.6791 9.375 25 9.375H75C81.3208 9.375 86.4583 14.5125 86.4583 20.8333ZM62.5 21.875H37.5C35.775 21.875 34.375 23.275 34.375 25C34.375 26.725 35.775 28.125 37.5 28.125H62.5C64.225 28.125 65.625 26.725 65.625 25C65.625 23.275 64.225 21.875 62.5 21.875Z" fill="#167FFC"/>
<path d="M89.7083 77.0333C88.3875 72.625 85.725 68.8333 82.175 66.0792C84.7958 63.6083 86.4583 60.1292 86.4583 56.25C86.4583 48.7833 80.3833 42.7083 72.9166 42.7083C69.8875 42.7083 67.1208 43.7417 64.8625 45.4292C62.8916 39.0542 57.0125 34.375 50 34.375C42.9875 34.375 37.1083 39.05 35.1375 45.4292C32.8791 43.7458 30.1125 42.7083 27.0833 42.7083C19.6166 42.7083 13.5416 48.7833 13.5416 56.25C13.5416 60.1292 15.2041 63.6083 17.825 66.0792C14.275 68.8333 11.6125 72.625 10.2916 77.0333C9.62496 79.275 10.0416 81.6333 11.4416 83.5125C12.8333 85.3833 14.9708 86.4583 17.2958 86.4583H22.9708C23.2208 86.975 23.5166 87.475 23.8916 87.9333C25.3 89.6458 27.3791 90.625 29.5875 90.625H70.4083C72.6166 90.625 74.6958 89.6458 76.1041 87.9333C76.4791 87.4792 76.7791 86.9792 77.025 86.4583H82.7C85.0291 86.4583 87.1625 85.3833 88.5541 83.5125C89.9541 81.6375 90.375 79.275 89.7041 77.0333H89.7083ZM72.9166 48.9583C76.9375 48.9583 80.2083 52.2292 80.2083 56.25C80.2083 60.2708 76.9375 63.5417 72.9166 63.5417C68.8958 63.5417 65.625 60.2708 65.625 56.25C65.625 52.2292 68.8958 48.9583 72.9166 48.9583ZM50 40.625C55.1666 40.625 59.375 44.8333 59.375 50C59.375 55.1667 55.1666 59.375 50 59.375C44.8333 59.375 40.625 55.1667 40.625 50C40.625 44.8333 44.8333 40.625 50 40.625ZM27.0833 48.9583C31.1041 48.9583 34.375 52.2292 34.375 56.25C34.375 60.2708 31.1041 63.5417 27.0833 63.5417C23.0625 63.5417 19.7916 60.2708 19.7916 56.25C19.7916 52.2292 23.0625 48.9583 27.0833 48.9583ZM16.45 79.775C16.3291 79.6125 16.1458 79.2708 16.2791 78.8208C17.5083 74.7125 20.3958 71.3875 24.1958 69.4625C25.1291 69.6667 26.0875 69.7875 27.0833 69.7875C27.5041 69.7875 27.9041 69.7 28.3166 69.6625C25.8208 72.6875 24 76.2667 22.9375 80.2042H17.2958C16.8416 80.2042 16.5708 79.9417 16.45 79.775ZM71.2791 83.9583C71.0666 84.2167 70.7416 84.375 70.4083 84.375H29.5916C29.2583 84.375 28.9333 84.2208 28.7208 83.9583C28.55 83.75 28.4833 83.525 28.5291 83.3C30.5208 73.0583 39.5541 65.625 50 65.625C60.4458 65.625 69.4833 73.0583 71.4708 83.3C71.5166 83.5292 71.45 83.75 71.2791 83.9583ZM83.5458 79.775C83.425 79.9375 83.1541 80.2083 82.7 80.2083H77.0583C76 76.2708 74.175 72.6917 71.6791 69.6667C72.0916 69.7042 72.4875 69.7917 72.9125 69.7917C73.9041 69.7917 74.8666 69.6708 75.8 69.4667C79.6 71.3917 82.4875 74.7167 83.7166 78.825C83.85 79.2708 83.6666 79.6083 83.5458 79.775Z" fill="#595BD4"/>
</svg>
