<svg width="74" height="70" viewBox="0 0 74 70" fill="none" xmlns="http://www.w3.org/2000/svg">
<rect width="74" height="70" rx="35" fill="#5996F6" fill-opacity="0.77"/>
<path d="M36.9999 10.5C31.0636 10.5002 25.3211 12.6229 20.7999 16.4881C16.2787 20.3534 13.2738 25.709 12.3229 31.5967C11.372 37.4844 12.5371 43.52 15.6098 48.6235C18.6825 53.727 23.4622 57.5654 29.0937 59.4519C30.3437 59.6718 30.8125 58.9182 30.8125 58.2587C30.8125 57.6622 30.7812 55.684 30.7812 53.5802C24.5 54.742 22.875 52.0417 22.375 50.6287C21.8202 49.2545 20.9407 48.0367 19.8125 47.0805C18.9375 46.6095 17.6875 45.4477 19.7812 45.4164C20.5807 45.5035 21.3475 45.7831 22.0166 46.2313C22.6857 46.6794 23.2374 47.2831 23.625 47.9911C23.9669 48.6083 24.4267 49.1516 24.978 49.5899C25.5292 50.0283 26.1612 50.353 26.8375 50.5455C27.5139 50.738 28.2215 50.7945 28.9196 50.7118C29.6178 50.6291 30.2929 50.4088 30.9061 50.0634C31.0144 48.7864 31.5808 47.5924 32.4999 46.7038C26.9375 46.0758 21.125 43.9091 21.125 34.301C21.0899 31.8044 22.0067 29.389 23.6875 27.55C22.9232 25.3803 23.0126 22.9991 23.9375 20.8933C23.9375 20.8933 26.0311 20.2339 30.8124 23.4681C34.9031 22.3376 39.2217 22.3376 43.3123 23.4681C48.0935 20.2025 50.1873 20.8933 50.1873 20.8933C51.1123 22.999 51.2017 25.3803 50.4373 27.55C52.1231 29.3859 53.0408 31.8034 52.9998 34.301C52.9998 43.9405 47.156 46.0758 41.5936 46.7038C42.1902 47.3114 42.6497 48.0409 42.9409 48.8427C43.2321 49.6446 43.3481 50.5 43.2811 51.3509C43.2811 54.7107 43.2498 57.411 43.2498 58.2588C43.2498 58.9182 43.7186 59.7032 44.9686 59.452C50.5902 57.5501 55.3562 53.7027 58.4158 48.5966C61.4754 43.4905 62.6294 37.458 61.6719 31.576C60.7144 25.694 57.7077 20.3453 53.1884 16.4848C48.6692 12.6242 42.9316 10.5031 36.9999 10.5Z" fill="white"/>
</svg>
