<svg width="74" height="70" viewBox="0 0 74 70" fill="none" xmlns="http://www.w3.org/2000/svg">
<rect width="74" height="70" rx="35" fill="#5996F6" fill-opacity="0.77"/>
<path d="M37 28.8C35.7738 28.8 34.575 29.1636 33.5555 29.8449C32.5359 30.5262 31.7412 31.4945 31.2719 32.6274C30.8027 33.7603 30.6799 35.0069 30.9191 36.2096C31.1584 37.4122 31.7489 38.517 32.6159 39.3841C33.483 40.2511 34.5878 40.8416 35.7904 41.0809C36.9931 41.3201 38.2397 41.1973 39.3726 40.7281C40.5055 40.2588 41.4738 39.4641 42.1551 38.4445C42.8364 37.425 43.2 36.2262 43.2 35C43.2 34.1858 43.0396 33.3796 42.7281 32.6274C42.4165 31.8751 41.9598 31.1917 41.3841 30.6159C40.8083 30.0402 40.1249 29.5835 39.3726 29.2719C38.6204 28.9604 37.8142 28.8 37 28.8ZM61.825 22.675C61.8118 20.7444 61.4563 18.8314 60.775 17.025C60.2732 15.7031 59.4968 14.5027 58.497 13.503C57.4973 12.5032 56.2969 11.7268 54.975 11.225C53.1686 10.5437 51.2556 10.1882 49.325 10.175C46.1 10 45.15 10 37 10C28.85 10 27.9 10 24.675 10.175C22.7444 10.1882 20.8314 10.5437 19.025 11.225C17.7031 11.7268 16.5027 12.5032 15.503 13.503C14.5032 14.5027 13.7268 15.7031 13.225 17.025C12.5437 18.8314 12.1882 20.7444 12.175 22.675C12 25.9 12 26.85 12 35C12 43.15 12 44.1 12.175 47.325C12.2019 49.2624 12.5569 51.1812 13.225 53C13.7246 54.3158 14.5003 55.5093 15.5 56.5C16.4955 57.5058 17.6985 58.2822 19.025 58.775C20.8314 59.4563 22.7444 59.8118 24.675 59.825C27.9 60 28.85 60 37 60C45.15 60 46.1 60 49.325 59.825C51.2556 59.8118 53.1686 59.4563 54.975 58.775C56.3015 58.2822 57.5045 57.5058 58.5 56.5C59.4997 55.5093 60.2754 54.3158 60.775 53C61.4557 51.1847 61.8111 49.2637 61.825 47.325C62 44.1 62 43.15 62 35C62 26.85 62 25.9 61.825 22.675ZM55.475 42.675C55.3948 44.2178 55.0655 45.7374 54.5 47.175C54.0147 48.3742 53.2932 49.4636 52.3784 50.3784C51.4636 51.2932 50.3742 52.0147 49.175 52.5C47.7238 53.034 46.1957 53.3295 44.65 53.375C42.675 53.375 42.15 53.375 37 53.375C31.85 53.375 31.325 53.375 29.35 53.375C27.8043 53.3295 26.2762 53.034 24.825 52.5C23.5853 52.0393 22.4657 51.3043 21.55 50.35C20.6442 49.4531 19.9446 48.3697 19.5 47.175C18.9639 45.7253 18.6765 44.1954 18.65 42.65C18.65 40.675 18.65 40.15 18.65 35C18.65 29.85 18.65 29.325 18.65 27.35C18.6765 25.8046 18.9639 24.2747 19.5 22.825C19.9607 21.5853 20.6957 20.4657 21.65 19.55C22.5508 18.6491 23.6332 17.9502 24.825 17.5C26.2762 16.966 27.8043 16.6705 29.35 16.625C31.325 16.625 31.85 16.625 37 16.625C42.15 16.625 42.675 16.625 44.65 16.625C46.1957 16.6705 47.7238 16.966 49.175 17.5C50.4147 17.9607 51.5343 18.6957 52.45 19.65C53.3558 20.5469 54.0554 21.6303 54.5 22.825C55.034 24.2762 55.3295 25.8043 55.375 27.35C55.375 29.325 55.375 29.85 55.375 35C55.375 40.15 55.55 40.675 55.475 42.65V42.675ZM51.475 24.075C51.1773 23.2675 50.708 22.5341 50.0995 21.9255C49.4909 21.317 48.7575 20.8477 47.95 20.55C46.8412 20.1657 45.6734 19.9795 44.5 20C42.55 20 42 20 37 20C32 20 31.45 20 29.5 20C28.3207 20.0115 27.1527 20.2316 26.05 20.65C25.2548 20.9341 24.5292 21.3843 23.9215 21.9705C23.3137 22.5567 22.8377 23.2656 22.525 24.05C22.1619 25.1634 21.9846 26.329 22 27.5C22 29.45 22 30 22 35C22 40 22 40.55 22 42.5C22.0248 43.678 22.2444 44.8438 22.65 45.95C22.9477 46.7575 23.417 47.4909 24.0255 48.0995C24.6341 48.708 25.3675 49.1773 26.175 49.475C27.2417 49.8673 28.3641 50.0867 29.5 50.125C31.45 50.125 32 50.125 37 50.125C42 50.125 42.55 50.125 44.5 50.125C45.6793 50.1135 46.8473 49.8934 47.95 49.475C48.7575 49.1773 49.4909 48.708 50.0995 48.0995C50.708 47.4909 51.1773 46.7575 51.475 45.95C51.8934 44.8473 52.1135 43.6793 52.125 42.5C52.125 40.55 52.125 40 52.125 35C52.125 30 52.125 29.45 52.125 27.5C52.1257 26.3195 51.9053 25.1493 51.475 24.05V24.075ZM37 44.55C35.7471 44.55 34.5064 44.3028 33.3492 43.8226C32.1919 43.3423 31.1408 42.6385 30.256 41.7514C29.3711 40.8642 28.6701 39.8113 28.1929 38.6527C27.7157 37.4942 27.4717 36.2529 27.475 35C27.475 33.1101 28.0357 31.2627 29.0862 29.6917C30.1367 28.1207 31.6297 26.8967 33.3762 26.1746C35.1227 25.4525 37.0441 25.2649 38.8973 25.6354C40.7505 26.0059 42.4521 26.9179 43.7867 28.256C45.1213 29.5941 46.0289 31.2981 46.3945 33.1523C46.7602 35.0064 46.5675 36.9274 45.8409 38.672C45.1142 40.4166 43.8863 41.9063 42.3125 42.9527C40.7387 43.9991 38.8899 44.5549 37 44.55ZM47 27.325C46.4474 27.2665 45.9359 27.0056 45.5642 26.5924C45.1925 26.1793 44.9868 25.6432 44.9868 25.0875C44.9868 24.5318 45.1925 23.9957 45.5642 23.5826C45.9359 23.1694 46.4474 22.9085 47 22.85C47.5526 22.9085 48.0641 23.1694 48.4358 23.5826C48.8075 23.9957 49.0132 24.5318 49.0132 25.0875C49.0132 25.6432 48.8075 26.1793 48.4358 26.5924C48.0641 27.0056 47.5526 27.2665 47 27.325Z" fill="white"/>
</svg>
