<svg width="74" height="70" viewBox="0 0 74 70" fill="none" xmlns="http://www.w3.org/2000/svg">
<rect width="74" height="70" rx="35" fill="#5996F6" fill-opacity="0.77"/>
<path d="M57 54.9975V39.5244C57 31.2345 52.7706 27.3769 47.1289 27.3769C42.5766 27.3769 40.5378 29.9965 39.4027 31.8345V28.0098H30.8282C30.9414 30.5436 30.8282 54.9975 30.8282 54.9975H39.4027V39.9253C39.4027 39.121 39.4581 38.3142 39.6847 37.7394C40.304 36.1283 41.7138 34.4592 44.0828 34.4592C47.1868 34.4592 48.4279 36.9326 48.4279 40.5607V55L57 54.9975ZM21.7933 24.3262C24.7817 24.3262 26.6445 22.2512 26.6445 19.6618C26.5891 17.0145 24.7817 15 21.8488 15C18.9159 15 17 17.0145 17 19.6618C17 22.2537 18.8605 24.3262 21.7403 24.3262H21.7933ZM26.0806 54.9975V28.0098H17.5085V54.9975H26.0806Z" fill="white"/>
</svg>
