<svg width="58" height="58" viewBox="0 0 58 58" fill="none" xmlns="http://www.w3.org/2000/svg">
<g clip-path="url(#clip0_263_177)">
<path d="M7.25016 7.25H50.7502C52.0849 7.25 53.1668 8.33199 53.1668 9.66667V48.3333C53.1668 49.6681 52.0849 50.75 50.7502 50.75H7.25016C5.91549 50.75 4.8335 49.6681 4.8335 48.3333V9.66667C4.8335 8.33199 5.91549 7.25 7.25016 7.25ZM29.1466 28.2337L13.6476 15.0744L10.5194 18.7589L29.1768 34.5997L47.4983 18.7441L44.3354 15.0893L29.1466 28.2337Z" fill="#939393"/>
<path d="M7.25016 7.25H50.7502C52.0849 7.25 53.1668 8.33199 53.1668 9.66667V48.3333C53.1668 49.6681 52.0849 50.75 50.7502 50.75H7.25016C5.91549 50.75 4.8335 49.6681 4.8335 48.3333V9.66667C4.8335 8.33199 5.91549 7.25 7.25016 7.25ZM29.1466 28.2337L13.6476 15.0744L10.5194 18.7589L29.1768 34.5997L47.4983 18.7441L44.3354 15.0893L29.1466 28.2337Z" fill="#939393"/>
</g>
<defs>
<clipPath id="clip0_263_177">
<rect width="58" height="58" fill="white"/>
</clipPath>
</defs>
</svg>
