<svg width="53" height="53" viewBox="0 0 53 53" fill="none" xmlns="http://www.w3.org/2000/svg">
<path d="M46.375 36.2608V44.0697C46.375 45.2291 45.4786 46.191 44.3224 46.2728C43.3564 46.341 42.5685 46.375 41.9583 46.375C22.4442 46.375 6.625 30.5558 6.625 11.0417C6.625 10.4315 6.65912 9.6435 6.72736 8.67765C6.80911 7.52132 7.77099 6.625 8.93019 6.625H16.7394C17.3062 6.625 17.781 7.05434 17.8379 7.61831C17.889 8.12461 17.9365 8.5311 17.9804 8.83779C18.4271 11.9575 19.3395 14.9269 20.645 17.6734C20.8546 18.1142 20.7179 18.6418 20.3208 18.9255L15.5545 22.3302C18.4562 29.1083 23.8917 34.5439 30.6698 37.4456L34.0682 32.6875C34.3555 32.2856 34.8895 32.1474 35.3355 32.3591C38.0818 33.6636 41.0509 34.575 44.1702 35.0206C44.4749 35.0644 44.8789 35.1114 45.3817 35.1622C45.9457 35.2192 46.375 35.694 46.375 36.2608Z" fill="#939393"/>
</svg>
