<svg width="74" height="70" viewBox="0 0 74 70" fill="none" xmlns="http://www.w3.org/2000/svg">
<rect width="74" height="70" rx="35" fill="#5996F6" fill-opacity="0.77"/>
<path d="M37 7.5C35.938 7.5 35.0769 8.359 35.0769 9.4186V45.2326C35.0769 48.4113 32.4939 50.9884 29.3077 50.9884C26.1214 50.9884 23.5385 48.4113 23.5385 45.2326C23.5385 42.0538 26.1214 39.4767 29.3077 39.4767C30.3698 39.4767 31.2308 38.6177 31.2308 37.5581V29.8837C31.2308 28.8241 30.3698 27.9651 29.3077 27.9651C19.7489 27.9651 12 35.6961 12 45.2326C12 54.769 19.7489 62.5 29.3077 62.5C38.8664 62.5 46.6154 54.769 46.6154 45.2326V30.4391C50.5013 32.9207 55.1218 34.3605 60.0769 34.3605C61.139 34.3605 62 33.5014 62 32.4419V24.7674C62 23.7078 61.139 22.8488 60.0769 22.8488C52.6423 22.8488 46.6154 16.8359 46.6154 9.4186C46.6154 8.359 45.7544 7.5 44.6923 7.5H37Z" fill="white"/>
</svg>
